<?xml version="1.0" standalone="no"?>
<!DOCTYPE svg PUBLIC "-//W3C//DTD SVG 20010904//EN"
 "http://www.w3.org/TR/2001/REC-SVG-20010904/DTD/svg10.dtd">
<svg version="1.0" xmlns="http://www.w3.org/2000/svg"
 width="512.000000pt" height="512.000000pt" viewBox="0 0 512.000000 512.000000"
 preserveAspectRatio="xMidYMid meet">
<metadata>
Created by potrace 1.14, written by Peter Selinger 2001-2017
</metadata>
<g transform="translate(0.000000,512.000000) scale(0.100000,-0.100000)"
fill="#000000" stroke="none">
<path d="M391 5104 c-199 -53 -344 -206 -381 -400 -8 -43 -10 -638 -8 -2179
l3 -2120 23 -59 c58 -154 180 -273 328 -322 57 -18 115 -19 2204 -19 l2145 0
65 23 c152 52 276 177 326 328 18 57 19 115 19 2204 l0 2145 -23 65 c-51 150
-165 265 -319 323 l-58 22 -2135 2 c-1842 2 -2142 0 -2189 -13z m554 -1854
c15 -22 40 -44 54 -48 14 -4 222 -7 461 -7 395 0 439 2 482 18 25 10 52 25 58
33 7 7 25 14 40 14 52 0 66 -45 45 -145 -8 -39 -15 -87 -15 -108 0 -51 -23
-104 -50 -112 -31 -10 -58 19 -76 82 -24 82 -37 87 -228 91 -132 3 -165 1
-181 -11 -20 -15 -20 -27 -20 -521 l0 -506 26 -26 c16 -16 53 -33 95 -45 63
-17 104 -45 104 -70 0 -5 -8 -17 -19 -28 -17 -17 -39 -18 -317 -18 -256 -1
-302 1 -316 15 -39 33 -14 75 55 92 67 17 118 42 133 66 12 18 14 103 12 527
-2 278 -6 509 -11 513 -4 4 -58 10 -121 12 -152 6 -213 -11 -254 -71 -52 -74
-93 -98 -127 -73 -25 18 -23 59 8 136 14 36 31 96 37 133 14 76 29 97 69 97
22 0 35 -10 56 -40z m2069 -56 c39 -38 8 -86 -65 -100 -47 -9 -85 -30 -103
-56 -13 -19 -16 -58 -16 -230 l0 -208 360 0 360 0 0 211 c0 125 -4 218 -10
230 -13 23 -53 44 -100 53 -20 3 -46 13 -58 22 -28 20 -30 69 -3 84 12 6 118
10 275 10 243 0 257 -1 276 -20 11 -11 20 -25 20 -30 0 -23 -49 -58 -98 -70
-34 -8 -57 -20 -65 -34 -18 -31 -17 -1032 1 -1063 7 -13 29 -27 55 -33 75 -19
97 -32 104 -58 4 -19 1 -30 -15 -42 -18 -15 -51 -17 -282 -17 -234 0 -263 2
-283 17 -18 15 -20 22 -12 46 8 23 21 31 78 48 38 12 79 32 93 45 24 23 24 23
24 242 l0 219 -361 0 -360 0 3 -211 3 -211 37 -33 c20 -19 56 -39 80 -44 89
-23 120 -60 83 -101 -15 -16 -39 -18 -293 -17 -152 0 -284 3 -293 8 -47 24
-21 83 44 99 73 19 98 32 108 57 10 26 13 1004 3 1040 -6 21 -32 36 -89 48
-69 15 -94 57 -58 97 15 17 37 18 279 18 225 0 265 -2 278 -16z m-796 -1114
c42 -26 72 -76 72 -120 0 -44 -30 -94 -72 -120 -119 -73 -263 75 -185 191 43
65 124 86 185 49z m2080 0 c94 -57 94 -183 0 -240 -119 -73 -263 75 -185 191
43 65 124 86 185 49z"/>
</g>
</svg>
