<?xml version="1.0" encoding="UTF-8"?>
<svg id="Layer_1" data-name="Layer 1" xmlns="http://www.w3.org/2000/svg" viewBox="0 0 35.9 26.9">
  <defs>
    <style>
      .cls-1 {
        fill: #333d35;
      }
    </style>
  </defs>
  <path class="cls-1" d="m29,1.7c-9.5-5.1-16.5,2.9-16.5,2.9C1,4.1,0,15.3,0,15.3c0,10.1,9.4,11.6,9.4,11.6h14.8c2.7-.4,5.4-1.1,8.9-4.8,3.4-3.7,5.5-15.3-4-20.4ZM3.3,20c-2.2-4.9-.4-9.1,2.6-11.4,2.9-2.3,7-2.7,10.5-.3l6.8,4.2s1.1.6.4,1.7c-.7.9-2.5-.4-2.5-.4l-7-4.2s-5.6-2.6-8.8,3.3c-1.5,3.4-.1,6.3,1.7,8s4,1.7,5.5,1.6l2,1.8s-6.6,2.9-11.1-4.3Zm25.3,3.1c-7.7,4.5-13.5-1.1-13.5-1.1-1.2-.9-3.9-4.5-4.5-5.2s-.7-1.2,0-1.8c1.1-.6,1.8.4,1.8.4,4,5.2,4.7,5.3,4.7,5.3,4.2,3,8.9,2.3,11.9-.8,5.7-6.7.3-12.3.3-12.3-5.8-6-12-1.3-12-1.3l-2.2-1c5.2-4.6,10.1-2.7,12-2,1.9.7,6.3,3.6,6.7,9.4.8,7.1-5.2,10.5-5.2,10.5Z"/>
</svg>